<svg width="373.5" height="72.001" viewBox="0 0 373.5 72.001" xmlns="http://www.w3.org/2000/svg"><g id="svgGroup" stroke-linecap="round" fill-rule="evenodd" font-size="9pt" stroke="#000" stroke-width="0.25mm" fill="#000" style="stroke:#000;stroke-width:0.25mm;fill:#000"><path d="M 9 70.801 L 0 70.801 L 0 0.801 L 13.3 0.801 L 32.7 45.101 L 51.8 0.801 L 65.4 0.801 L 65.4 70.801 L 55.9 70.801 L 55.9 12.901 L 37.2 55.001 L 27.8 55.001 L 9 12.901 L 9 70.801 Z M 193.5 65.201 L 186.9 72.001 L 152.9 38.601 L 152.9 70.801 L 143.4 70.801 L 143.4 0.801 L 152.9 0.801 L 152.9 32.701 L 182.7 0.501 L 189.1 6.401 L 161.8 34.801 L 193.5 65.201 Z M 320 67.801 L 311.1 72.001 L 302.4 53.001 A 30.586 30.586 0 0 0 299.809 48.427 Q 297.303 44.823 294.1 42.901 Q 289.745 40.287 283.264 39.95 A 37.847 37.847 0 0 0 281.3 39.901 L 279.8 39.901 L 279.8 70.801 L 270.3 70.801 L 270.3 1.001 Q 275.6 0.501 280.45 0.251 A 187.94 187.94 0 0 1 286.766 0.036 A 226.267 226.267 0 0 1 290.8 0.001 Q 303.6 0.001 310.05 5.201 A 17.414 17.414 0 0 1 314.68 10.735 Q 316.5 14.244 316.5 18.601 A 19.88 19.88 0 0 1 315.849 23.821 A 14.672 14.672 0 0 1 312.15 30.351 Q 307.8 34.801 299.6 37.001 A 23.656 23.656 0 0 1 303.029 38.863 A 20.427 20.427 0 0 1 304.4 39.851 Q 306.369 41.397 308.205 43.911 A 29.29 29.29 0 0 1 308.45 44.251 Q 310.4 47.001 312.4 51.401 L 320 67.801 Z M 260.3 68.301 L 251.6 71.801 L 243.8 51.801 L 211.4 51.801 L 203.6 71.601 L 195.5 68.301 L 222.9 0.801 L 233.3 0.801 L 260.3 68.301 Z M 352 70.801 L 342.5 70.801 L 342.5 9.201 L 321 9.201 L 321 0.801 L 373.5 0.801 L 373.5 9.201 L 352 9.201 L 352 70.801 Z M 227.6 10.201 L 214.4 43.801 L 240.7 43.801 L 227.6 10.201 Z M 279.8 8.401 L 279.8 31.901 L 290.8 31.901 A 26.489 26.489 0 0 0 295.723 31.469 Q 299.652 30.726 302.5 28.701 Q 307 25.501 307 19.501 A 9.811 9.811 0 0 0 303.727 12.036 A 13.272 13.272 0 0 0 302.8 11.251 A 13.923 13.923 0 0 0 298.436 9.029 Q 296.507 8.418 294.177 8.17 A 31.944 31.944 0 0 0 290.8 8.001 Q 287.626 8.001 285.062 8.088 A 118.974 118.974 0 0 0 284.7 8.101 Q 282 8.201 279.8 8.401 Z M 121.4 40.601 L 87.4 40.601 L 87.4 32.401 L 121.4 32.401 L 121.4 40.601 Z" vector-effect="non-scaling-stroke"/></g></svg>